<svg  data-name="Layer 1" shape-rendering="geometricPrecision" xmlns="http://www.w3.org/2000/svg" viewBox="0 0 728.07 285.38"><defs><style>.cls-1{fill:#fff;}.cls-2{fill:#ea0029;}.cls-3{fill:#231f20;}</style></defs><path class="cls-1" d="M609.7,196.43c-61.86-13.55-135.8-20.72-213.84-20.75s-152,7.09-213.84,20.6C120.5,209.7,76.57,228.2,55,249.79c-10.1,10.09-15.21,20.79-15.22,31.82,0,28.26,32.53,53.31,94.32,72.83-32.8,2.69-54.32,10.12-55.33,10.48a9,9,0,0,0,4.95,17.23c97.35-22,166.93,16.07,199.74,40.75a9,9,0,0,0,9.1,1,9.11,9.11,0,0,0,2-1.28c.32,3.56.58,6.58.75,8.27a8.1,8.1,0,0,0-.65,5.27l1,5.14a9,9,0,0,0,10.42,7.09l7.67-1.4a9,9,0,0,0,7.29-7.67l.75-5.72a9.14,9.14,0,0,0,.07-1.16,9,9,0,0,0-2.42-6.08c-.41-4.58-.74-8.19-1.18-13.13a9,9,0,0,0,4,1.24l5.62.35a46.72,46.72,0,0,0,3.7,13.09c5.7,11.85,15,12.25,18.7,11.89,7.91-.78,11.71-5.39,13.59-10.16a21.29,21.29,0,0,0,9.39,2.28,9,9,0,0,0,7.94,4.48l4.59-.1a9,9,0,0,0,11.31,6.82L407.87,440a9,9,0,0,0,6.45-8.61,8.44,8.44,0,0,0-.1-1.31l-.65-4.45a8.74,8.74,0,0,0-1.51-3.63c-.24-2.29-1-9.38-1.85-17.86l16.86-1.38c.59,4.64,1.19,9.28,1.58,12.26a8.68,8.68,0,0,0-1,3.79,10.2,10.2,0,0,0,.1,1.34l.81,5.39a9,9,0,0,0,10.12,7.58l9.43-1.33a9,9,0,0,0,2.61-.78,18,18,0,0,0,12.09,3c4-.44,9.19-2.4,13.36-8.42a9.13,9.13,0,0,0,2.57-2.43,18.36,18.36,0,0,0,13.9,4.09c6.43-.73,14.11-5,16-20.27a10,10,0,0,0,1-1.76,44.79,44.79,0,0,0,3.82,8.15c7,11.28,15.56,12.1,20.07,11.59a17.73,17.73,0,0,0,9.81-4.42,9,9,0,0,0,6.75,1.64l8.52-1.39a9,9,0,0,0,7.46-7.7l.75-5.71a9.2,9.2,0,0,0,.08-1.17,8.93,8.93,0,0,0-2.58-6.28,0,0,0,0,1,0,0c-.42-4.64-.75-8.28-1.19-13.18a8.83,8.83,0,0,0,3.72,1.21l6.87.61a51.75,51.75,0,0,0,4,12.64c6.22,12.39,15.53,13.27,20.54,12.7s10.55-3.2,13.78-11.27a20.86,20.86,0,0,0,10.45,2.63,7.82,7.82,0,0,0,1.12,1.18,9,9,0,0,0,6.84,2.05l9.74-1.16a8.87,8.87,0,0,0,4.9,0l10.2-3a3.62,3.62,0,0,1,3.42-.93l9.59-.47a8.89,8.89,0,0,0,8.94,3.43l10-2.09a8.88,8.88,0,0,0,6.08-4.56,9.05,9.05,0,0,0,.4-7.6l-1.48-3.66a9.18,9.18,0,0,0-1.36-2.29c-.59-5.9-1.63-16.43-1.63-16.43a50.06,50.06,0,0,0-3.83-15.38,25.77,25.77,0,0,0-4.89-7.62c25.1-9.77,44.08-20.85,56.11-32.89,10.1-10.08,15.22-20.79,15.22-31.83S746.78,260.12,736.7,250C715.12,228.43,671.21,209.89,609.7,196.43Z" transform="translate(-31.8 -163.15)"/><path class="cls-2" d="M390.1,427.22l-9.11.2-.52-5.41,1.08-.17-.15-1.51a12.63,12.63,0,0,1-6.47,2.58,12.38,12.38,0,0,1-8.61-2.25,10.63,10.63,0,0,1-4.63-8,10.76,10.76,0,0,1,3-8.79,12.1,12.1,0,0,1,8-3.93,12.6,12.6,0,0,1,6.18.92l-.66-6.73c-.08-.24-.2-.77-.38-1.62q-1.77-7.89-5.61-7.52-3.46.35-4.23,6.6l.9.17-.21,4.09-8.7,1.26.18-6.62,1.21.19a19.41,19.41,0,0,1,2.77-8.57,8.87,8.87,0,0,1,6.87-4.42c3.62-.36,6.79,1.19,9.48,4.63a22.67,22.67,0,0,1,4.3,10.92l3.43,27.37,1.43-.1.51,6.75m-9.91-16.42c-.13-1.36-1.07-2.37-2.81-3a9.88,9.88,0,0,0-4.16-.53,9.48,9.48,0,0,0-4,1.4c-1.63.93-2.38,2.09-2.24,3.45s1.08,2.36,2.88,2.94a9.24,9.24,0,0,0,4.16.52,9.41,9.41,0,0,0,4-1.31C379.59,413.27,380.32,412.13,380.19,410.8Z" transform="translate(-31.8 -163.15)"/><polygon class="cls-2" points="373.55 268.19 362.78 271.35 362.03 263.98 363.27 263.86 356.62 200.56 355.3 200.78 355.24 194.75 365.38 192.57 365.97 198.68 365.03 198.92 371.73 263.57 372.89 263.74 373.55 268.19"/><path class="cls-2" d="M288.76,400.24C187.81,335.7,80.47,373.39,80.47,373.39c90.69-20.52,162,8.4,207.11,42.33C288,410.38,288.39,405.2,288.76,400.24Z" transform="translate(-31.8 -163.15)"/><path class="cls-2" d="M332.48,400.43l-.09,5.68-9.56-.6.87-3.95,1.19-.18-.16-1.4q-.92-8.09-4.18-7.87-4.5.36-8,5.54a22.06,22.06,0,0,0-3.76,10.05L311,432.8l1.89-.36-.75,5.72-7.67,1.4-1-5.15,1.14-.3-3.8-42.18-1.18.19-1.31-4.52,10.35-2.3-.68,5.3-.8.08.3,2.67q4.59-7.8,12.43-8.4,5.15-.37,8.16,4.36a23.41,23.41,0,0,1,3.12,10l.14,1.31Z" transform="translate(-31.8 -163.15)"/><path class="cls-2" d="M349.48,420.29l.79,0c-.31,3.55-.88,3.65-1.58,3.72-2.76.26-4.78-4.28-5.88-13.11l16-1.49-.1-.78c-2.15-16.73-6.67-24.53-13.82-23.84-5,.49-8,4.66-9.05,12.39a66.06,66.06,0,0,0-.53,9.45s.27,3.55.27,3.55A44.33,44.33,0,0,0,339,424.42c2.51,5.21,6,7.62,10.45,7.19,5.2-.52,7.49-3.9,8-11.9.25,0,1.17-.11,1.17-.11l.11-5-11.09-1.43Zm1.65-16.63-8.8,1.87c0-.21,0-.42,0-.63a43.06,43.06,0,0,1,.53-6.68c.56-3.63,1.55-5.7,2.75-5.81.29,0,1.4.17,3.16,4.06A41.49,41.49,0,0,1,351.13,403.66Z" transform="translate(-31.8 -163.15)"/><path class="cls-2" d="M359.75,261.15a24.37,24.37,0,0,0-20.38,11.4c-1.7-3.19-6.94-11.88-15.72-16.84l5.39-6.32c3.37-3.37,25.23-9.26,25.23-9.26,7.59-6.74,3.37-24.4,3.37-24.4-2.51-10.09,1.69-21.89,1.69-21.89-5.88,7.58-24.39,13.47-24.39,13.47-27.84.81-20.6,39.91-20.22,42a24.07,24.07,0,0,0-6.7-4.1l-16-5.88.86,14.29s15.12,0,20.2,5.89c0,0,4.16-3.38,5,14.29v21.69a33.25,33.25,0,1,0,29.05,15,23.25,23.25,0,0,0,12.56,3.67c13.68,0,24.81-11.84,24.81-26.49s-11.13-26.51-24.81-26.51M325.46,296,324,268.73a28.58,28.58,0,0,0-2.49-10.3A29.84,29.84,0,0,1,336.65,278l.06-.12a27.9,27.9,0,0,0,2,23.75A32.68,32.68,0,0,0,325.46,296Z" transform="translate(-31.8 -163.15)"/><path class="cls-1" d="M336.37,237.68l14.17-13.1s3.15,6.28.52,10l-14.84,5.59Z" transform="translate(-31.8 -163.15)"/><path class="cls-1" d="M306.34,304.8s-15.16,7.72-12.94,18.69h0s.85,4,3.93,4h0a5.52,5.52,0,0,0,4.94-5.29h0s-.75-12.14,4.19-17.25" transform="translate(-31.8 -163.15)"/><path class="cls-1" d="M340.52,286.34c-.67-.19-.73,12.83,6.78,15.7,2.26.87,6.33,1.59,7-2.47.27-1.48.06-3.38-5.57-4.69S340.72,286.41,340.52,286.34Z" transform="translate(-31.8 -163.15)"/><path class="cls-2" d="M441.89,368.88a8.24,8.24,0,1,1-8.08-8.41A8.26,8.26,0,0,1,441.89,368.88Z" transform="translate(-31.8 -163.15)"/><path class="cls-1" d="M431.73,363.31s-4.88,2.36-4.24,5.88h0s.24,1.27,1.23,1.3h0a1.76,1.76,0,0,0,1.61-1.67h0s-.17-3.87,1.44-5.47" transform="translate(-31.8 -163.15)"/><path class="cls-3" d="M647.52,193.67C580.13,174,490.75,163.19,395.88,163.15,235.1,163.1,96,194.17,49.67,240.46,37.82,252.31,31.8,265.12,31.8,278.54c0,30.31,30.41,56.83,88.31,77.39,4.39-.58,9-1.09,14-1.49-61.79-19.52-94.33-44.57-94.32-72.83,0-11,5.12-21.73,15.22-31.82,21.58-21.59,65.51-40.09,127-53.51,61.87-13.51,135.82-20.63,213.84-20.6s152,7.2,213.84,20.75c61.51,13.46,105.42,32,127,53.59,10.08,10.1,15.19,20.82,15.19,31.84s-5.12,21.75-15.22,31.83c-12,12-31,23.12-56.11,32.89a23.35,23.35,0,0,1,3.5,4.82c49.75-19.78,75.8-44.57,75.81-72.61C759.88,244.52,721,215.09,647.52,193.67Z" transform="translate(-31.8 -163.15)"/><path class="cls-3" d="M621.58,267.24v4.63s15.52-6.6,16.22-28.62c-1.15-11.57-6-20.07-9.18-19.07,0,0-8.9-2.94-8.9,11.74,0,0-1.38,15.42,9.14,11.75C628.86,247.67,635,254,621.58,267.24Z" transform="translate(-31.8 -163.15)"/><polygon class="cls-3" points="415.11 259.71 405.67 261.04 404.87 255.63 406.36 255.34 402.07 222.09 400.41 222.47 400.75 217.67 407.92 216.15 408.14 218.7 412.86 254.88 414.19 254.72 415.11 259.71"/><path class="cls-3" d="M474.38,397.53l-9.59,1.59v-4.88l1,0a33.66,33.66,0,0,0-3-8.63q-3-5.86-6-5.51-2.41.27-4.15,5.18c-1.42,3.91-1.81,8.77-1.15,14.61s2.11,10.42,4.36,13.89c1.86,2.94,3.58,4.33,5.17,4.15,1.31-.16,2.49-1.35,3.56-3.61l-1-.74,1.14-2.08,8.66,2-1.92,4.4-1-.38q-3.18,6.87-8.68,7.49c-4.29.5-8.07-1.95-11.37-7.29a46.36,46.36,0,0,1-4-35.08q3-9,9.46-9.74t11.1,6.59a40.65,40.65,0,0,1,5.21,13.64l1.16-.2Z" transform="translate(-31.8 -163.15)"/><path class="cls-3" d="M501.25,392.26l-18.62,2.05q2.3,17.47,8.2,16.81c1.46-.16,2.35-3.05,2.64-8.67l-2.16.25-1.68-6.34,11.85,1.09,0,4.23-1.3.16q-.64,15.54-8.47,16.42-7.16.81-11.41-7.71-3-6.24-4.19-16.3c-.25-2.16-.37-3.52-.39-4.05a75.9,75.9,0,0,1,.46-10.89c1-8.61,4.21-13.2,9.56-13.82q11.49-1.31,15.55,26.77m-6.94-5.08a48.27,48.27,0,0,0-3.2-9.34c-1.69-3.62-3.25-5.36-4.66-5.19-1.89.2-3.18,2.73-3.86,7.56a50.79,50.79,0,0,0-.44,9.74Z" transform="translate(-31.8 -163.15)"/><path class="cls-3" d="M545.09,388.46l-10.46,3.25.06-6.27,1.86-.29a33.55,33.55,0,0,0-3-8.65q-3-5.85-6-5.51-2.41.28-4.14,5.2c-1.43,3.91-1.81,8.77-1.15,14.61s2.1,10.41,4.36,13.9c1.84,2.93,3.57,4.31,5.17,4.13,1.3-.15,2.49-1.34,3.54-3.61l-1.63-1,1.12-2.09,9.61,2.16-1.9,4.87-1.25-.67c-2.11,4.59-5,7.08-8.67,7.5q-6.43.73-11.38-7.3a46.35,46.35,0,0,1-4-35.08q3-9,9.46-9.74t11.1,6.6A40.55,40.55,0,0,1,543,384.1l1.14-.21Z" transform="translate(-31.8 -163.15)"/><path class="cls-3" d="M577.34,374l.33,5.82-10-.88.54-3.91,1.55-.08-.16-1.38q-.92-8.1-4.17-7.87c-3,.23-5.66,2.08-8,5.53a22.1,22.1,0,0,0-3.76,10l2.26,25.11,2-.23-.74,5.71-8.52,1.39-1-5.15,1.82-.42-3.8-42.18-1.59.19-1.31-4.52,11.72-2.57-.68,5.31-1.76.35.29,2.66q4.61-7.8,12.43-8.4,5.16-.37,8.17,4.35a23.46,23.46,0,0,1,3.11,10l.14,1.29Z" transform="translate(-31.8 -163.15)"/><path class="cls-3" d="M606.83,378.9l-18.63,2q2.31,17.47,8.2,16.82c1.47-.17,2.35-3.06,2.65-8.69l-1.42-.11-.58-5.77,10,.88,0,4.25-1.31.15q-.65,15.54-8.46,16.43-7.15.81-11.42-7.72-3-6.23-4.19-16.3c-.24-2.15-.38-3.51-.38-4.05a77.2,77.2,0,0,1,.45-10.88q1.54-12.92,9.56-13.83,11.51-1.31,15.56,26.78m-7-5.08a47.58,47.58,0,0,0-3.19-9.34c-1.7-3.63-3.25-5.37-4.67-5.21-1.89.21-3.17,2.73-3.86,7.58a51.55,51.55,0,0,0-.45,9.74Z" transform="translate(-31.8 -163.15)"/><path class="cls-3" d="M639.27,398.32l-9.84,1.17-.22-4.3,1-.2-.16-1.45a12.34,12.34,0,0,1-6.27,2.59,12,12,0,0,1-8.4-2.05,10.33,10.33,0,0,1-4.63-7.75,10.54,10.54,0,0,1,2.76-8.6,12,12,0,0,1,7.69-4,12.54,12.54,0,0,1,6,.8l-.74-6.52c-.09-.23-.21-.76-.4-1.57q-1.83-7.65-5.57-7.22c-2.23.25-3.58,2.41-4,6.48l1.21.26-.4,2.83-9.24,1.44.29-5.62,1.69.3a19,19,0,0,1,2.56-8.39,8.65,8.65,0,0,1,6.62-4.39c3.52-.4,6.62,1,9.28,4.36a21.92,21.92,0,0,1,4.36,10.55l3.74,26.57,1.88-.06.72,4.72m-10.5-14c-.14-1.34-1.07-2.31-2.77-2.92a9.33,9.33,0,0,0-4-.43,8.81,8.81,0,0,0-3.86,1.41c-1.57.92-2.28,2.05-2.13,3.38s1.1,2.28,2.84,2.83a9.29,9.29,0,0,0,7.91-.9C628.24,386.7,628.92,385.58,628.77,384.3Z" transform="translate(-31.8 -163.15)"/><path class="cls-3" d="M685.43,395.34l-10,2.08-1-4.35,1.62,0-2.21-21.9a48.72,48.72,0,0,0-1.71-7.95c-.82-2.93-1.81-4.78-3-5.52-1.15.13-2.24,1.36-3.24,3.66a22.87,22.87,0,0,0-1.63,5.61c.29,1.53.58,3.3.85,5.32l2.27,16.6,1.41.06,1,4.72-11.49.58,1-5.54,1.58,0-2.14-15.43c-.24-1.63-.87-4.5-1.92-8.57-.84-3-1.72-5-2.67-6.08-2.1.43-3.76,2.53-5,6.28a34.6,34.6,0,0,0-1.54,9.77L649.69,392l2.48-.28.59,3.82-10.18,3-.83-5.31,1.47-.44-4.42-35.9-1.65.19-1-5.42,10.85-1-.84,4.65-1,.18.17,1.58a10.58,10.58,0,0,1,8-5.59q4.13-.56,7.2,5.11,2.75-5.52,7.75-6.09c3.63-.4,6.6,2,8.91,7.28a41.11,41.11,0,0,1,3.13,12.68l2.13,21.46,1.47-.25Z" transform="translate(-31.8 -163.15)"/><path class="cls-3" d="M98.06,329.62c9.3.47,9.11-7.06,9.11-20.2V255.25c0-13.12.19-20.65-9.11-20.17V229.3c4.74.16,9.18.48,13.66.64,5.22-.16,10.47-.48,15.69-.64,10.36.32,25.78,3.35,25.78,25.67,0,15.68-10,21.94-17.83,23.69V279c9.79,1.61,21.9,7.85,21.9,27.55,0,26.61-19.29,29.18-31.31,28.84-4.74-.14-9.57-.46-14.35-.61-4.43.15-8.8.47-13.54.61v-5.75M122,275.93h1.93c9.12,0,13.19-4.31,13.19-19.55,0-13-3.4-19.71-11.22-19.71-1.57-.13-3.9.17-3.9,3.21v36.05m0,30.76c0,10.58,0,21.32,8.15,21.32,7.64,0,10.38-9.92,10.38-21.32,0-16.17-4.58-23.38-14.35-23.38-1.36,0-2.8.17-4.18.17Z" transform="translate(-31.8 -163.15)"/><path class="cls-3" d="M211.09,308.25c2,4.62,4.15,9.92,6.47,14.06,2,3.56,3.5,4.66,6.21,5.62v5.8c-3.19-.18-6.4-.5-9.58-.67-3.21.17-6.4.49-9.6.67l-13.76-32.22c-3.19-7.36-7.35-15.38-10.08-15.07-.49,0-1.06.16-1.55.16v21.16c0,13.15-.08,20.66,9.2,20.17v5.8c-5.52-.18-11.16-.5-16.67-.67-5.52.17-10.94.49-16.47.67v-5.8c9.32.49,9.11-7,9.11-20.17V253.6c0-13.16.21-20.69-9.11-20.19v-5.77c5.53.16,11,.47,16.47.63,5.24-.16,10.48-.47,15.71-.63,4.65.31,11.71.79,16,3.83,6.3,4.17,9.59,12.81,9.59,24,0,14.28-7.24,23.26-15.22,25.33l13.3,27.42m-28.21-29.17c9.31,0,14.06-5.93,14.06-21.81,0-14.58-3.7-22.26-12.8-22.26-1.06,0-4.36-.17-4.63,1.75s-.31,12.67-.31,14.91v27.41Z" transform="translate(-31.8 -163.15)"/><path class="cls-3" d="M213.21,228.47c5,.16,10.17.47,15.2.64,6-.17,12-.48,18-.64v5.77c-9.38-.48-9.3,7.37-9.3,20.51v38.63c0,20.34,2.9,32.51,16.76,32.51,12.11,0,18.51-10.27,18.51-29.64V262.9c0-5.75.12-17.12-1.73-22.08-1.66-4.5-4.56-6.11-7.46-6.58v-5.77c3.68.16,7.36.47,11,.64,3.84-.17,7.85-.48,11.71-.64v5.77c-2.89.78-5.91,1.92-7.37,6.58-1.74,5.6-1.34,15.85-1.34,22.08v30c0,29-9.11,43.44-26.85,43.44-16.95,0-28.1-9.77-28.1-43.12V254.75c0-13.29.29-20.51-9.11-20.51Z" transform="translate(-31.8 -163.15)"/><path class="cls-3" d="M393.85,334.24h-4.2V300.91h3.81c2.65,14.59,7,28,17.53,28,5.47,0,10.78-6.1,10.78-16,0-14.92-9.08-18.93-15.71-23.71-8.51-6.26-15.45-14.28-15.45-31.91,0-19.7,8.94-30.29,19.89-30.29a16.07,16.07,0,0,1,14.21,7.86l1.22-6.25H430l.57,28.84h-4.07c-1.69-12.33-7.12-23.07-15.34-23.07-4.63,0-9.38,4.48-9.38,13.14,0,12,7.2,15.36,12.62,19.52,10.1,7.39,19.69,14.94,19.69,36.42s-10.81,32.84-22.45,32.84c-6.08,0-12.24-3.55-16.47-10.93Z" transform="translate(-31.8 -163.15)"/><path class="cls-3" d="M496.72,258.9h-4.09c-.93-13.45-5.56-22.42-13.79-22.42-3.07,0-4.37-.49-5.23,1.13-1,2.07-.49,5.29-.49,10.57v60.41c0,14.25-.19,20.68,9.49,20.19v5.76c-5.59-.13-11.18-.47-16.76-.62-5.61.15-11.18.49-16.78.62v-5.76c9.68.49,9.58-5.94,9.58-20.19V248.18c0-5.76-.12-9-.59-9.94-.65-1.28-2.46-1.43-5.09-1.76-9.3-1.28-12.79,8.51-14.3,22.42h-4.06l.57-30.43h61Z" transform="translate(-31.8 -163.15)"/><path class="cls-3" d="M499.26,328.78c9.09.49,8.88-7,8.88-20.19V254.42c0-13.13.21-20.66-8.88-20.18v-5.77c5.39.16,10.7.47,16.07.64,11.56-.17,23.22-.48,34.77-.64l.78,28.2h-4.1c-1.61-15.85-7-20.81-16.09-20.81-1.15,0-7.2,0-7.76,1.75-.27.81-.27,7.84-.27,9.13v29.64c7.66,0,12.58-2.4,13-17.32h3.78c-.08,7.39-.27,14.75-.36,22.12.09,6.59.28,13.33.36,19.86h-3.78c-1.78-14.73-4.25-17.29-13-17.29V302.5c0,15.05-.3,24.67,10.88,24.67,10.69,0,14.87-5.44,17.2-23.54h3.83c-.11,6.08-.31,12-.4,18.1.09,4.33.29,8.51.4,12.81-13.08-.13-26.14-.47-39.24-.62-5.37.15-10.68.49-16.07.62Z" transform="translate(-31.8 -163.15)"/><path class="cls-3" d="M612.46,309.06c2,4.66,4.1,9.95,6.38,14.11,2,3.54,3.39,4.66,6.08,5.61v5.76c-3.14-.13-6.29-.47-9.41-.62-3.12.15-6.24.49-9.35.62L592.7,302.35c-3.12-7.4-7.18-15.4-9.85-15.07-.47,0-1,.16-1.5.16v21.15c0,13.14-.1,20.68,9,20.19v5.76c-5.42-.13-10.92-.47-16.32-.62-5.38.15-10.72.49-16.1.62v-5.76c9.11.49,8.91-7,8.91-20.19V254.42c0-13.13.2-20.66-8.91-20.18v-5.77c5.38.16,10.72.47,16.1.64,5.11-.17,10.23-.48,15.34-.64,4.55.32,11.47.81,15.62,3.86,6.15,4.15,9.36,12.81,9.36,24,0,14.24-7.09,23.21-14.84,25.3l12.93,27.4M585,279.91c9.08,0,13.72-5.93,13.72-21.79,0-14.59-3.61-22.26-12.5-22.26-1.06,0-4.26-.18-4.53,1.75-.29,1.76-.29,12.65-.29,14.91v27.39Z" transform="translate(-31.8 -163.15)"/><path class="cls-3" d="M647.14,334.24H643V300.91h3.76c2.65,14.59,7,28,17.55,28,5.46,0,10.78-6.1,10.78-16,0-14.92-9.1-18.93-15.74-23.71-8.5-6.26-15.41-14.28-15.41-31.91,0-19.7,8.89-30.29,19.86-30.29a16,16,0,0,1,14.2,7.86l1.27-6.25h4l.58,28.84H679.8c-1.7-12.33-7.1-23.07-15.33-23.07-4.65,0-9.37,4.48-9.37,13.14,0,12,7.2,15.36,12.58,19.52,10.15,7.39,19.7,14.94,19.7,36.42s-10.78,32.84-22.46,32.84c-6,0-12.21-3.55-16.45-10.93Z" transform="translate(-31.8 -163.15)"/><path class="cls-3" d="M691.08,322.8a5.51,5.51,0,1,0,5.52-5.49A5.52,5.52,0,0,0,691.08,322.8Zm.78,0a4.73,4.73,0,1,1,4.74,4.72A4.73,4.73,0,0,1,691.86,322.8Z" transform="translate(-31.8 -163.15)"/><path class="cls-3" d="M693.86,319h3a2.58,2.58,0,0,1,1.22.24,1.73,1.73,0,0,1,.94,1.72,2.06,2.06,0,0,1-.26,1.06,1.76,1.76,0,0,1-.7.65,1.45,1.45,0,0,1,.59.47,1.7,1.7,0,0,1,.22.91l.05,1c0,.29,0,.49,0,.62a.67.67,0,0,0,.32.44v.17h-1.12a2.46,2.46,0,0,1-.07-.24,3.67,3.67,0,0,1,0-.57l-.1-1.23a1,1,0,0,0-.46-.94,1.43,1.43,0,0,0-.77-.14h-2v3.12h-.9V319m2.93,3.32a1.59,1.59,0,0,0,1-.27,1.25,1.25,0,0,0,.35-1,1.14,1.14,0,0,0-.49-1.07,1.82,1.82,0,0,0-.72-.13h-2.14v2.46Z" transform="translate(-31.8 -163.15)"/><polygon class="cls-3" points="388.6 190.54 394.03 195.45 391.14 197.07 388.6 190.54"/><polygon class="cls-3" points="383.4 200.13 390.45 200.11 389.41 203.28 383.4 200.13"/><polygon class="cls-3" points="384.45 212.3 389.28 207.17 390.79 210.16 384.45 212.3"/><path class="cls-3" d="M696.51,388.87v-5.38h-1.64v-.72h4v.72h-1.65v5.38Z" transform="translate(-31.8 -163.15)"/><path class="cls-3" d="M699.48,388.87v-6.1h1l1.18,4.33.23.9c.07-.24.15-.55.27-1l1.2-4.24h.88v6.1h-.63v-5.11l-1.46,5.11h-.59l-1.44-5.2v5.2Z" transform="translate(-31.8 -163.15)"/></svg>